<svg width="432" height="334" viewBox="0 0 432 334" fill="none" xmlns="http://www.w3.org/2000/svg">
<mask id="mask0_148_1409" style="mask-type:luminance" maskUnits="userSpaceOnUse" x="0" y="0" width="432" height="334">
<path d="M0 0H431.63V333.781H0V0Z" fill="white"/>
</mask>
<g mask="url(#mask0_148_1409)">
<path d="M342.37 237.49C338.495 235.162 333.844 236.714 331.516 240.589C319.891 260.745 304.385 277.797 285.005 290.974C251.677 313.458 211.365 321.984 171.833 315.005C145.474 310.354 122.219 298.729 102.068 281.672L121.448 275.474C132.297 272.37 143.151 267.719 153.229 263.844C166.406 258.417 178.807 252.219 191.984 245.24C193.536 244.464 195.865 243.693 197.411 242.917C213.693 235.938 226.094 228.188 235.396 221.208C234.62 225.859 231.521 235.162 223.771 244.464C215.24 254.542 204.391 258.417 199.74 259.969C209.042 259.969 225.318 259.193 243.922 251.443C260.979 243.693 272.604 232.839 278.031 226.636C278.031 219.662 278.031 199.505 265.63 180.125C251.677 158.422 231.521 150.672 224.542 148.344C216.016 152.219 201.286 159.198 188.109 173.927C171.057 192.531 165.63 212.682 164.078 221.984C166.406 218.109 174.932 204.932 191.984 200.281C199.74 197.953 206.714 198.729 211.365 199.505C201.286 206.484 190.437 215.011 179.583 223.537C167.958 231.287 156.328 238.266 143.927 244.464C134.625 249.891 124.547 254.542 114.469 258.417L88.8906 269.271C83.4635 263.844 78.8125 258.417 74.9375 251.443C52.4531 218.109 43.9271 177.802 50.9062 138.266C58.6562 98.7344 80.3594 63.849 113.693 41.3699C172.609 1.06257 252.448 7.26049 303.609 56.8751C306.714 59.974 311.365 59.974 314.464 56.8751C317.562 53.7709 317.562 49.1199 314.464 46.0209C257.875 -8.23951 169.505 -15.2187 105.167 28.9688C68.7344 53.7709 43.9271 91.7553 35.401 135.943C31.526 155.323 31.526 174.698 34.625 194.078C26.875 202.604 19.125 211.906 12.9219 221.984C9.04685 228.188 5.94268 235.162 3.61977 242.917C1.29164 250.667 -0.255231 258.417 2.06769 266.948C2.84373 270.823 5.17185 275.474 8.27081 278.573C11.3698 281.672 15.2448 284 18.3489 286.323C26.0989 290.203 33.8489 291.75 42.3802 291.75C56.3333 292.526 70.2864 290.203 84.2396 287.099C107.495 309.578 136.172 324.307 168.729 330.511C178.807 332.063 189.661 333.609 199.74 333.609C233.073 333.609 265.63 323.531 293.536 304.156C314.464 289.427 332.292 270.823 344.698 248.344C347.797 244.464 346.245 239.813 342.37 237.49ZM23.776 277.021C16.7969 274.698 12.1458 270.823 10.5937 264.62C8.27081 258.417 9.04685 251.443 10.5937 244.464C12.1458 237.49 14.4739 230.511 17.5729 223.537C22.2239 213.458 29.1979 203.38 36.1771 194.854C40.0521 218.109 49.3541 240.589 62.5312 260.745C65.6354 265.396 69.5104 270.047 73.3854 274.698C63.3073 277.797 53.2291 279.349 43.151 280.125C36.1771 280.125 29.9739 279.349 23.776 277.021ZM334.62 85.5574L302.062 106.484C284.234 95.6303 264.854 94.0834 250.125 103.385C240.047 109.583 233.844 120.438 231.521 133.615C236.948 135.167 243.146 137.49 248.573 140.594C260.203 147.568 271.052 157.646 279.583 171.599C288.109 185.552 292.76 199.505 294.307 213.458C295.083 219.662 294.307 225.859 293.536 232.063C305.937 235.162 318.339 234.391 329.193 228.188C343.922 218.886 350.896 200.281 348.573 179.349L381.13 158.422C395.859 149.12 407.484 136.719 416.01 122.766C424.536 108.813 429.964 92.5313 431.516 75.4792C398.958 63.849 363.302 67.724 334.62 85.5574ZM343.922 154.547C331.516 162.297 316.016 161.521 309.812 152.219C303.609 142.917 309.036 128.964 322.214 120.438C334.62 112.688 350.12 113.464 356.323 122.766C361.75 132.068 357.099 146.792 343.922 154.547Z" fill="white"/>
</g>
</svg>
